<svg width="946" height="735" viewBox="0 0 946 735" fill="none" xmlns="http://www.w3.org/2000/svg">
<g clip-path="url(#clip0)">
<path opacity="0.1" d="M845.788 401.99C811.386 457.923 816.845 533.568 830.987 593.087C835.722 613.015 841.2 634.047 836.7 656.46C831.196 683.867 812.03 705.557 792.742 718.046C757.581 740.813 717.731 740.639 688.992 717.591C664.157 697.674 648.057 662.64 622.682 643.811C580.217 612.3 521.279 632.363 469.914 662.846C433.575 684.412 393.547 711.671 360.378 696.879C337.039 686.471 322.756 656.509 316.303 623.803C313.187 608.012 311.397 590.748 303.972 578.771C299.558 571.651 293.426 566.923 287.065 563.067C228.978 527.851 149.494 558.751 93.5435 518.769C55.7564 491.767 34.7416 435.359 28.3217 374.854C21.9018 314.349 28.4909 249.455 36.5572 185.545C42.2897 140.127 49.9085 91.475 73.747 54.3077C98.9649 14.9898 138.216 -2.88295 172.118 0.377023C206.02 3.63699 235.236 25.2311 260.334 51.6794C291.701 84.734 319.841 127.084 360.81 137.396C388.711 144.419 419.378 135.577 449.16 130.428C498.948 121.821 547.915 123.575 596.534 126.039C643.078 128.399 689.901 131.475 733.109 147.67C763.686 159.13 786.971 183.442 815.451 199.097C834.016 209.301 855.075 210.384 872.325 224.077C893.573 240.946 911.761 272.33 902.716 312.356C894.116 350.411 864.047 372.303 845.788 401.99Z" fill="#6C63FF"/>
<path d="M151.515 379.205C151.515 379.205 226.986 392.902 281.394 320.993C281.394 320.993 235.761 277.333 204.169 286.75C172.577 296.167 151.515 351.811 151.515 351.811V379.205Z" fill="#6C63FF"/>
<path opacity="0.1" d="M151.515 379.205C151.515 379.205 226.986 392.902 281.394 320.993C281.394 320.993 235.761 277.333 204.169 286.75C172.577 296.167 151.515 351.811 151.515 351.811V379.205Z" fill="black"/>
<path d="M185.74 320.992L262.966 475.941L281.394 466.524L201.536 320.992H185.74Z" fill="#504F60"/>
<path d="M281.394 320.993C267.408 321.129 253.491 322.937 239.956 326.377C221.281 331.184 203.524 338.903 187.372 349.234C164.021 364.07 151.515 379.205 151.515 379.205C95.8341 283.736 108.287 111.513 109.331 98.3548V98.3462C109.348 98.1408 109.357 97.9695 109.366 97.8497C109.384 97.6528 109.392 97.5586 109.392 97.5586C146.25 97.5586 281.394 320.993 281.394 320.993Z" fill="#6C63FF"/>
<path d="M944.365 515.463L858.829 537.9C858.829 537.9 727.195 540.469 681.562 578.992C635.929 617.515 503.417 613.235 499.907 613.235C496.397 613.235 447.253 571.287 357.742 614.947C268.231 658.606 161.168 631.212 161.168 631.212C161.168 631.212 49.7182 676.584 18.126 661.174C-13.4662 645.765 5.84017 625.219 5.84017 625.219C5.84017 625.219 70.7797 576.424 20.7587 522.491C-29.2623 468.559 29.5343 468.559 29.5343 468.559H198.719C212.527 468.684 226.153 465.487 238.394 459.253C251.61 452.362 267.16 454.562 277.568 457.464C286.567 459.959 296.025 460.457 305.246 458.92C390.168 444.871 444.357 448.895 466.876 451.96C476.247 453.225 485.736 453.451 495.159 452.636C523.856 450.196 583.407 445.017 615.745 441.267C624.644 440.24 631.48 439.324 635.051 438.596C645.056 436.559 692.286 445.539 740.06 457.55C792.854 470.81 846.324 487.778 850.931 497.665C857.285 511.294 913.282 511.919 943.742 511.225C944.282 511.214 944.807 511.397 945.218 511.737C945.63 512.078 945.899 512.554 945.976 513.075C946.053 513.596 945.931 514.127 945.634 514.567C945.338 515.007 944.886 515.325 944.365 515.463Z" fill="#EED1D7"/>
<path d="M611.357 569.253L590.296 573.533C590.296 573.533 506.927 529.873 495.519 544.427" fill="#CCB2BB"/>
<path d="M590.296 444.267C590.296 444.267 455.151 417.728 398.987 449.403L590.296 444.267Z" fill="#CCB2BB"/>
<path opacity="0.1" d="M488.613 491.955C488.613 491.955 454.825 478.483 456.305 486.181C457.785 493.88 475.049 501.579 475.049 501.579C475.049 501.579 441.014 498.692 442.494 510.24C442.494 510.24 481.461 509.278 479.981 517.939C478.501 526.6 479.981 538.148 486.393 535.742C492.806 533.336 496.752 505.428 514.016 518.901C531.28 532.374 528.813 504.947 507.603 502.541C507.603 502.541 518.948 494.361 517.962 490.512C516.975 486.662 488.613 491.955 488.613 491.955Z" fill="black"/>
<path d="M488.12 490.512C488.12 490.512 454.332 477.039 455.812 484.738C457.291 492.437 474.555 500.135 474.555 500.135C474.555 500.135 440.521 497.248 442.001 508.796C442.001 508.796 480.968 507.834 479.488 516.495C478.008 525.156 479.488 536.704 485.9 534.299C492.313 531.893 496.259 503.985 513.522 517.458C530.786 530.93 528.32 503.504 507.11 501.098C507.11 501.098 518.455 492.918 517.468 489.068C516.482 485.219 488.12 490.512 488.12 490.512Z" fill="#F89898"/>
<path d="M750.889 517.032C750.889 517.032 702.624 502.479 698.236 505.047L750.889 517.032Z" fill="#CCB2BB"/>
<path d="M376.171 529.873C376.171 529.873 441.11 511.896 465.682 525.593L376.171 529.873Z" fill="#CCB2BB"/>
<path d="M483.672 456.68C483.672 456.68 501.223 406.171 536.326 416.444C571.428 426.717 597.755 453.255 597.755 453.255L483.672 461.816V456.68Z" fill="#EED1D7"/>
<path d="M101.933 513.18C101.933 513.18 129.137 524.309 174.771 520.029C220.404 515.748 256.384 542.286 256.384 542.286" fill="#CCB2BB"/>
<g opacity="0.05">
<path opacity="0.05" d="M212.423 307.949C212.639 307.596 212.739 307.186 212.71 306.775C212.581 307.158 212.485 307.551 212.423 307.949Z" fill="url(#paint0_linear)"/>
</g>
<g opacity="0.05">
<path opacity="0.05" d="M212.423 307.36C212.639 307.006 212.739 306.597 212.71 306.186C212.581 306.569 212.485 306.961 212.423 307.36Z" fill="url(#paint1_linear)"/>
</g>
<g opacity="0.05">
<path opacity="0.05" d="M264.291 455.26C262.389 456.054 257.858 460.218 251.981 466.192C250.114 454.202 248.905 443.388 249.687 438.891C249.754 438.219 249.993 437.573 250.381 437.014C253.908 436.779 261.072 445.382 266.796 453.159C265.211 454.397 264.291 455.26 264.291 455.26Z" fill="url(#paint2_linear)"/>
</g>
<path d="M358.068 507.741C358.068 507.741 388.825 567.172 396.514 569.48C404.204 571.788 409.527 568.326 409.527 568.326C409.527 568.326 473.407 556.786 461.577 570.057C449.748 583.328 346.238 575.25 346.238 575.25L320.213 518.127L358.068 507.741Z" fill="#EF91A3"/>
<path opacity="0.1" d="M269.937 508.895C269.937 508.895 319.622 476.584 333.226 476.584C333.226 476.584 353.336 470.237 365.166 514.088C365.166 514.088 324.354 521.012 324.945 540.053L317.256 523.897L284.133 559.671L243.912 533.129L269.937 508.895Z" fill="black"/>
<path d="M269.937 507.741C269.937 507.741 319.622 475.43 333.226 475.43C333.226 475.43 353.336 469.083 365.166 512.934C365.166 512.934 324.354 519.858 324.945 538.899L317.256 522.743L284.133 558.517L243.912 531.975L269.937 507.741Z" fill="#5D526E"/>
<path d="M324.354 491.586C321.396 505.433 306.018 507.741 306.018 507.741L284.133 494.47C284.133 494.47 281.045 474.593 278.437 462.476C277.437 457.82 276.509 454.306 275.852 453.504C273.486 450.619 310.75 451.196 310.75 451.196C313.365 455.508 315.746 459.951 317.883 464.507C321.94 473.168 325.933 484.188 324.354 491.586Z" fill="#EF91A3"/>
<path d="M229.717 387.149L217.296 444.849L187.13 437.348C187.13 437.348 159.33 415.999 167.611 402.728C170.32 398.389 171.698 392.077 172.331 385.551C173.626 372.101 171.751 357.722 171.751 357.722C171.751 357.722 204.874 349.068 198.368 372.724C195.695 382.441 200.503 386.607 207.098 388.147C216.568 390.357 229.717 387.149 229.717 387.149Z" fill="#EF91A3"/>
<path opacity="0.1" d="M207.098 388.147C202.392 390.533 197.165 391.774 191.862 391.765C184.557 391.765 177.524 387.305 172.047 383.399C172.806 374.851 172.706 366.251 171.751 357.722C171.751 357.722 204.874 349.068 198.368 372.724C195.695 382.441 200.503 386.607 207.098 388.147Z" fill="black"/>
<path d="M191.862 390.611C210.155 390.611 224.985 376.145 224.985 358.299C224.985 340.454 210.155 325.988 191.862 325.988C173.569 325.988 158.739 340.454 158.739 358.299C158.739 376.145 173.569 390.611 191.862 390.611Z" fill="#EF91A3"/>
<path opacity="0.1" d="M189.385 425.703L198.368 437.925L203.479 419.85C205.453 412.619 206.495 405.175 206.579 397.692C206.621 394.518 207.68 391.438 209.606 388.88C218.824 383.976 225.667 381.387 237.283 382.55C248.791 383.776 259.724 388.098 268.86 395.033C303.386 420.9 319.622 463.89 319.622 463.89C319.622 463.89 272.303 454.658 274.669 465.044C274.669 465.044 253.967 432.732 249.236 437.925C244.504 443.118 259.291 511.78 259.291 511.78L162.288 518.704L136.854 452.927L138.037 403.882C138.037 403.882 163.175 392.631 168.498 392.631C170.361 392.631 170.077 391.998 170.864 394.939C173.898 406.272 182.389 416.184 189.385 425.703Z" fill="black"/>
<path opacity="0.1" d="M317.883 464.507C309.655 463.059 286.351 459.36 278.437 462.476C277.437 457.82 276.509 454.306 275.852 453.504C273.486 450.619 310.75 451.196 310.75 451.196C313.365 455.508 315.746 459.951 317.883 464.507Z" fill="black"/>
<path d="M190.568 425.126L199.551 437.348L204.662 419.273C206.636 412.042 207.677 404.598 207.761 397.115C207.804 393.942 208.863 390.861 210.789 388.303C220.006 383.399 226.85 380.81 238.466 381.973C249.974 383.199 260.907 387.521 270.043 394.456C304.569 420.323 320.805 463.313 320.805 463.313C320.805 463.313 273.486 454.081 275.852 464.467C275.852 464.467 255.15 432.155 250.418 437.348C245.687 442.541 260.474 511.203 260.474 511.203L163.471 518.127L138.037 452.35L139.22 403.305C139.22 403.305 164.358 392.054 169.681 392.054C171.544 392.054 171.26 391.421 172.047 394.362C175.081 405.695 183.572 415.607 190.568 425.126Z" fill="#DFECFB"/>
<path opacity="0.1" d="M168.866 381.126C165.542 381.705 161.671 380.61 160.05 377.721C159.41 376.287 158.955 374.78 158.698 373.235C156.981 366.662 151.362 361.753 148.596 355.53C143.935 345.048 148.027 333.021 152.129 322.318C154.145 317.059 156.311 311.58 160.613 307.85C167.224 302.117 177.081 301.981 185.85 303.109C189.403 303.566 192.975 304.179 196.548 303.904C200.12 303.628 203.779 302.335 206.04 299.623C207.944 300.828 207.239 303.617 206.851 305.799C206.468 307.951 206.784 310.473 208.565 311.799C210.345 313.124 213.668 312.032 213.519 309.852C211.917 314.473 215.452 319.582 220.006 321.599C221.517 322.253 223.113 322.703 224.75 322.935C227.495 323.32 230.002 324.667 231.803 326.724C233.604 328.781 234.576 331.408 234.535 334.113L234.534 334.163C234.581 334.763 234.443 335.364 234.136 335.887C233.756 336.305 233.272 336.618 232.731 336.798C228.136 338.85 224.381 342.346 222.066 346.727C220.84 349.065 219.917 351.772 217.657 353.197C214.879 354.948 211.243 354.076 207.946 354.325C205.216 354.578 202.625 355.621 200.506 357.318C198.386 359.016 196.834 361.292 196.048 363.855C195.282 366.528 195.384 369.439 193.67 371.814C193.306 372.35 192.829 372.805 192.271 373.148C191.713 373.492 191.087 373.715 190.433 373.804C187.869 374.075 186.689 371.831 184.848 370.672C180.522 367.95 177.762 371.544 176.396 374.934C174.894 378.659 173.846 380.26 168.866 381.126Z" fill="black"/>
<path d="M168.866 380.549C165.542 381.128 161.671 380.033 160.05 377.144C159.41 375.71 158.955 374.203 158.698 372.658C156.981 366.085 151.362 361.176 148.596 354.953C143.935 344.471 148.027 332.444 152.129 321.741C154.145 316.482 156.311 311.003 160.613 307.273C167.224 301.54 177.081 301.404 185.85 302.532C189.403 302.989 192.975 303.602 196.548 303.327C200.12 303.051 203.779 301.758 206.04 299.046C207.944 300.251 207.239 303.04 206.851 305.222C206.468 307.374 206.784 309.896 208.565 311.222C210.345 312.547 213.668 311.455 213.519 309.275C211.917 313.896 215.452 319.005 220.006 321.022C221.517 321.676 223.113 322.126 224.75 322.358C227.495 322.743 230.002 324.09 231.803 326.147C233.604 328.204 234.576 330.831 234.535 333.536L234.534 333.586C234.581 334.186 234.443 334.787 234.136 335.31C233.756 335.728 233.272 336.041 232.731 336.222C228.136 338.273 224.381 341.769 222.066 346.15C220.84 348.488 219.917 351.195 217.657 352.62C214.879 354.371 211.243 353.499 207.946 353.748C205.216 354.001 202.625 355.044 200.506 356.741C198.386 358.439 196.834 360.715 196.048 363.278C195.282 365.951 195.384 368.862 193.67 371.237C193.306 371.773 192.829 372.228 192.271 372.571C191.713 372.915 191.087 373.138 190.433 373.227C187.869 373.498 186.689 371.254 184.848 370.095C180.522 367.373 177.762 370.967 176.396 374.357C174.894 378.082 173.846 379.683 168.866 380.549Z" fill="#572142"/>
<g opacity="0.05">
<path opacity="0.05" d="M262.945 393.879C294.879 417.804 311.164 456.372 313.43 462.029C317.839 462.734 320.805 463.313 320.805 463.313C320.805 463.313 304.569 420.323 270.043 394.456C260.907 387.521 249.974 383.199 238.466 381.973C236.854 381.812 235.342 381.73 233.895 381.709C244.484 383.282 254.485 387.472 262.945 393.879Z" fill="black"/>
<path opacity="0.05" d="M164.949 393.785C167.983 405.118 176.474 415.03 183.471 424.549L192.453 436.771L194.308 430.214L190.568 425.126C183.572 415.607 175.081 405.695 172.047 394.362C171.26 391.421 171.544 392.054 169.681 392.054C168.005 392.206 166.356 392.567 164.775 393.129C164.828 393.327 164.884 393.539 164.949 393.785Z" fill="black"/>
<path opacity="0.05" d="M272.704 459.734C274.625 462.552 275.852 464.467 275.852 464.467C274.82 459.936 283.244 459.139 293.07 459.68C285.361 458.881 277.358 458.538 272.704 459.734Z" fill="black"/>
<path opacity="0.05" d="M249.724 439.208C246.927 436.642 244.568 435.401 243.321 436.771C238.589 441.964 253.376 510.626 253.376 510.626L163.063 517.073L163.471 518.127L260.474 511.203C260.474 511.203 247.6 451.419 249.724 439.208Z" fill="black"/>
</g>
<path d="M160.093 576.571C154.433 581.141 138.362 592.092 118.518 587.944C98.739 583.807 115.33 574.557 122.913 570.951C123.314 570.761 123.667 570.485 123.944 570.144C124.221 569.802 124.415 569.404 124.512 568.979C124.609 568.555 124.607 568.114 124.505 567.69C124.403 567.266 124.205 566.87 123.924 566.531C119.576 561.35 114.58 556.72 109.054 552.747C104.234 549.285 98.4314 543.054 93.3802 537.07V537.064C90.7245 533.931 88.2875 530.873 86.3002 528.306C85.9267 527.823 85.7174 527.239 85.7014 526.634C85.6855 526.03 85.8638 525.436 86.2114 524.935C86.5589 524.434 87.0583 524.052 87.6396 523.842C88.2208 523.633 88.8548 523.605 89.4528 523.765L128.23 534.035C128.838 534.196 129.376 534.541 129.768 535.022L142.515 550.56L160.525 572.521C161.013 573.116 161.242 573.874 161.161 574.632C161.08 575.39 160.697 576.087 160.093 576.571Z" fill="#EF91A3"/>
<path opacity="0.1" d="M142.515 550.56C110.155 527.538 97.9405 531.652 93.3802 537.064C90.7245 533.931 88.2875 530.873 86.3002 528.305C85.9267 527.823 85.7174 527.239 85.7014 526.634C85.6855 526.03 85.8638 525.436 86.2113 524.935C86.5589 524.434 87.0583 524.052 87.6396 523.842C88.2208 523.633 88.8548 523.605 89.4527 523.765L128.23 534.035C128.838 534.196 129.376 534.541 129.768 535.022L142.515 550.56Z" fill="black"/>
<path d="M115.561 479.469C115.561 479.469 63.5104 462.736 71.7911 497.932C80.0719 533.129 90.7185 541.784 90.7185 541.784C90.7185 541.784 93.6759 514.088 143.952 550.439L126.207 522.743L146.909 497.355L115.561 479.469Z" fill="#5D526E"/>
<path opacity="0.1" d="M103.14 447.734C103.14 447.734 98.4078 471.968 115.561 501.394C129.158 524.722 113.02 535.358 105.746 538.766C104.793 539.212 103.721 539.361 102.678 539.19C101.634 539.019 100.671 538.538 99.9191 537.812C95.1273 533.188 85.9403 521.459 91.31 503.125L94.8589 493.893L75.34 480.046C75.34 480.046 70.0592 460.938 72.4038 456.644C74.7485 452.35 93.6759 440.81 93.6759 440.81L103.14 447.734Z" fill="black"/>
<path d="M103.14 446.58C103.14 446.58 98.4078 470.814 115.561 500.24C129.158 523.568 113.02 534.204 105.746 537.612C104.793 538.058 103.721 538.207 102.678 538.036C101.634 537.865 100.671 537.384 99.9191 536.658C95.1273 532.034 85.9403 520.305 91.31 501.971L94.8589 492.739L75.34 478.892C75.34 478.892 70.0592 459.784 72.4038 455.49C74.7485 451.196 93.6759 439.656 93.6759 439.656L103.14 446.58Z" fill="#EF91A3"/>
<path d="M146.318 400.42C146.318 400.42 103.731 424.077 85.9867 439.656C68.2422 455.235 71.7911 460.428 71.7911 460.428C71.7911 460.428 88.9441 429.27 103.731 456.389C103.731 456.389 145.135 426.962 156.373 439.656C167.611 452.35 146.318 400.42 146.318 400.42Z" fill="#DFECFB"/>
<path d="M130.348 536.591L165.836 529.667L161.696 547.554L135.978 544.942L130.348 536.591Z" fill="#5D526E"/>
<path d="M191.862 460.428L190.679 473.122L148.092 466.198L135.08 458.12L115.561 451.196C117.863 445.007 118.223 438.29 116.596 431.901C115.858 429.146 114.712 426.51 113.195 424.077C104.914 410.806 148.092 416.576 148.092 416.576C147.624 419.568 147.406 422.591 147.442 425.618C147.53 435.259 150.328 448.847 165.837 446.58L178.849 454.081L191.862 460.428Z" fill="#FFC1CD"/>
<path d="M149.867 442.541C149.867 442.541 171.751 433.309 182.398 452.35C193.045 471.391 197.777 470.237 197.777 470.237L176.483 456.966L149.867 442.541Z" fill="#FFC1CD"/>
<path d="M168.203 538.899C168.203 538.899 151.641 552.17 161.105 568.903C170.569 585.636 229.717 582.751 229.717 582.751C229.717 582.751 192.17 568.989 201.48 522.786C201.48 522.786 174.709 530.244 168.203 538.899Z" fill="#5F5470"/>
<path d="M246.87 558.517L240.955 580.443L261.657 576.404C261.657 576.404 252.784 557.94 253.967 552.747C255.15 547.554 246.87 558.517 246.87 558.517Z" fill="#5F5470"/>
<path d="M263.431 531.975C263.431 531.975 317.256 537.168 332.043 545.246L343.281 548.708C343.281 548.708 347.421 547.554 356.294 555.055L402.429 565.441L437.918 572.365C437.918 572.365 470.45 578.135 472.815 576.981C475.181 575.827 491.151 585.636 475.773 590.252C460.394 594.868 428.454 587.944 428.454 587.944C428.454 587.944 404.795 585.059 399.472 586.79C394.148 588.521 358.068 583.328 358.068 583.328L322.579 585.636C322.579 585.636 316.664 576.981 301.286 579.866C290.312 581.925 271.205 578.694 261.161 576.675C259.216 576.286 257.435 575.34 256.044 573.959C254.653 572.577 253.716 570.823 253.351 568.919L249.827 550.439L263.431 531.975Z" fill="#FFC1CD"/>
<path opacity="0.05" d="M263.431 531.975C263.431 531.975 317.256 537.168 332.043 545.246L343.281 548.708C343.281 548.708 347.421 547.554 356.294 555.055L402.429 565.441L437.918 572.365C437.918 572.365 470.45 578.135 472.815 576.981C475.181 575.827 491.151 585.636 475.773 590.252C460.394 594.868 428.454 587.944 428.454 587.944C428.454 587.944 404.795 585.059 399.472 586.79C394.148 588.521 358.068 583.328 358.068 583.328L322.579 585.636C322.579 585.636 316.664 576.981 301.286 579.866C290.312 581.925 271.205 578.694 261.161 576.675C259.216 576.286 257.435 575.34 256.044 573.959C254.653 572.577 253.716 570.823 253.351 568.919L249.827 550.439L263.431 531.975Z" fill="black"/>
<path opacity="0.1" d="M147.442 425.618C143.264 429.123 138.243 431.539 132.849 432.638C127.454 433.736 121.863 433.483 116.596 431.901C115.858 429.146 114.712 426.51 113.195 424.077C104.914 410.806 148.092 416.576 148.092 416.576C147.624 419.568 147.406 422.591 147.442 425.618Z" fill="black"/>
<path d="M126.207 432.155C144.174 432.155 158.739 417.947 158.739 400.42C158.739 382.894 144.174 368.685 126.207 368.685C108.241 368.685 93.6759 382.894 93.6759 400.42C93.6759 417.947 108.241 432.155 126.207 432.155Z" fill="#FFC1CD"/>
<path opacity="0.1" d="M112.603 447.157C112.603 447.157 137.446 460.428 138.628 469.083C139.811 477.738 135.08 488.123 135.08 488.123C135.08 488.123 146.318 553.901 160.513 558.517L198.368 522.743L230.308 508.895C230.308 508.895 211.381 507.741 209.606 490.431C207.832 473.122 211.972 467.352 190.679 459.274C169.386 451.196 157.852 441.675 157.852 441.675L152.353 443.029L180.624 457.543C180.624 457.543 196.594 466.775 155.19 459.851L116.152 446.003L112.603 447.157Z" fill="black"/>
<path d="M112.012 446.003C112.012 446.003 136.854 459.274 138.037 467.929C139.22 476.584 134.488 486.969 134.488 486.969C134.488 486.969 145.726 552.747 159.922 557.363L197.777 521.589L229.717 507.741C229.717 507.741 210.789 506.587 209.015 489.277C207.24 471.968 211.381 466.198 190.087 458.12C168.794 450.042 157.26 440.521 157.26 440.521L151.762 441.875L180.032 456.389C180.032 456.389 196.002 465.621 154.599 458.697L115.561 444.849L112.012 446.003Z" fill="#FF808C"/>
<path opacity="0.1" d="M120.884 450.619C120.884 450.619 96.6333 441.964 102.548 469.66C108.463 497.355 139.22 545.246 139.22 545.246L211.381 521.012C211.381 521.012 233.857 504.279 227.942 502.548C222.027 500.817 190.679 511.78 190.679 511.78L148.092 518.127L138.037 490.431C138.037 490.431 147.501 484.085 144.543 476.007C144.514 475.926 144.484 475.845 144.454 475.764C140.436 465.011 132.337 456.175 121.831 451.081L120.884 450.619Z" fill="black"/>
<path d="M119.701 449.465C119.701 449.465 95.4503 440.81 101.365 468.506C107.28 496.201 138.037 544.092 138.037 544.092L210.198 519.858C210.198 519.858 232.674 503.125 226.759 501.394C220.844 499.663 189.496 510.626 189.496 510.626L146.909 516.973L136.854 489.277C136.854 489.277 146.318 482.931 143.36 474.853C143.331 474.772 143.301 474.691 143.271 474.61C139.253 463.857 131.154 455.02 120.648 449.927L119.701 449.465Z" fill="#FFC1CD"/>
<path opacity="0.1" d="M121.962 354.91C119.153 354.124 116.224 353.824 113.309 354.026C110.565 354.419 107.905 355.247 105.435 356.478C101.459 358.288 97.6528 360.434 94.0594 362.89C91.643 364.542 89.2751 366.359 86.487 367.302C82.3055 368.716 77.4677 368.059 73.6149 370.183C68.2155 373.16 67.0087 380.298 67.806 386.298C68.6033 392.298 70.7851 398.278 69.815 404.253C68.3634 413.196 60.413 419.549 53.1087 425.135C50.8086 426.895 48.3398 428.96 47.9867 431.791C47.7659 433.561 48.4318 435.306 48.9881 437.004C52.0693 446.308 51.9088 456.345 48.5319 465.55C45.0817 474.75 38.2824 482.39 29.4296 487.015C26.0722 488.725 21.9985 490.473 21.2121 494.087C20.2137 498.676 25.2793 502.23 29.7897 503.857C33.4694 505.183 37.2742 506.153 41.1488 506.751C44.5566 507.277 48.1999 507.483 51.3098 506.025C54.9285 504.329 57.1358 500.73 59.0483 497.287C66.4945 483.879 75.6355 477.306 80.4534 462.8C81.4925 459.672 83.1496 455.95 86.5053 455.633C88.6041 455.435 90.5014 456.726 92.2855 457.823C100.893 463.113 109.933 457.185 117.945 451.069C119.799 449.654 121.385 447.878 123.449 446.774C127.833 444.427 134.218 445.098 136.846 440.948C137.456 439.854 137.881 438.671 138.104 437.444C139.181 432.932 140.257 428.196 139.012 423.725C137.861 419.589 134.857 416.198 133.088 412.274C131.318 408.351 131.216 402.989 134.832 400.553C135.916 399.823 137.22 399.445 138.287 398.691C141.394 396.492 141.464 392.1 141.446 388.356C141.368 387.43 141.53 386.5 141.919 385.652C142.488 384.846 143.236 384.176 144.107 383.692C147.558 381.386 150.245 378.148 151.84 374.376C153.407 370.252 149.394 368.385 146.188 366.068C138.944 360.829 130.711 357.038 121.962 354.91Z" fill="black"/>
<path d="M121.37 354.333C118.562 353.547 115.633 353.247 112.718 353.449C109.974 353.842 107.314 354.67 104.844 355.901C100.868 357.711 97.0613 359.857 93.468 362.313C91.0515 363.965 88.6837 365.782 85.8956 366.725C81.714 368.139 76.8762 367.482 73.0234 369.606C67.624 372.583 66.4172 379.721 67.2145 385.721C68.0118 391.721 70.1936 397.701 69.2236 403.676C67.7719 412.619 59.8215 418.972 52.5172 424.558C50.2171 426.318 47.7483 428.383 47.3953 431.214C47.1744 432.984 47.8404 434.729 48.3966 436.427C51.4778 445.731 51.3173 455.768 47.9404 464.973C44.4902 474.173 37.6909 481.813 28.8382 486.438C25.4807 488.148 21.407 489.896 20.6206 493.51C19.6222 498.099 24.6878 501.653 29.1982 503.28C32.8779 504.606 36.6827 505.576 40.5573 506.174C43.9651 506.7 47.6084 506.905 50.7183 505.448C54.337 503.752 56.5443 500.153 58.4568 496.71C65.903 483.302 75.044 476.729 79.8619 462.223C80.901 459.095 82.5581 455.373 85.9138 455.056C88.0126 454.858 89.9099 456.149 91.694 457.246C100.301 462.536 109.342 456.608 117.354 450.492C119.207 449.077 120.793 447.301 122.857 446.197C127.241 443.85 133.626 444.521 136.254 440.371C136.865 439.277 137.29 438.094 137.513 436.867C138.59 432.355 139.666 427.619 138.421 423.148C137.269 419.012 134.266 415.621 132.496 411.697C130.727 407.774 130.625 402.412 134.24 399.976C135.324 399.246 136.629 398.868 137.695 398.114C140.802 395.915 140.872 391.523 140.855 387.779C140.776 386.853 140.939 385.923 141.328 385.075C141.896 384.269 142.644 383.599 143.516 383.115C146.966 380.809 149.654 377.571 151.249 373.799C152.816 369.675 148.802 367.808 145.596 365.491C138.352 360.252 130.12 356.461 121.37 354.333Z" fill="#B46D86"/>
<path d="M396.81 607.273C380.751 610.579 333.894 609.177 327.015 603.811C316.487 595.595 319.078 588.296 319.776 586.79H319.622C319.622 586.79 325.537 572.942 319.622 562.556C319.622 562.556 319.03 549.862 306.609 540.053C294.188 530.244 280.584 502.548 280.584 502.548L273.486 516.973C273.486 516.973 262.816 548.645 251.749 562.706C249.535 565.496 248.028 568.755 247.349 572.221C246.615 576.035 244.084 580.841 236.223 582.174L235.815 582.243C230.311 583.141 224.658 582.488 219.521 580.361C214.384 578.234 209.976 574.721 206.815 570.236C201.521 562.8 195.524 552.48 194.168 542.427C193.726 539.046 194.014 535.611 195.013 532.344C196.013 529.078 197.701 526.051 199.971 523.459L200.036 523.384C212.777 508.699 256.948 458.189 264.023 455.235C264.023 455.235 295.963 425.231 308.384 465.621C320.805 506.01 324.945 518.127 324.945 518.127C324.945 518.127 339.797 544.005 343.873 552.747C348.084 561.783 365.604 584.32 367.384 586.599C369.01 587.684 384.667 598.041 389.712 598.041C391.942 598.041 408.379 604.89 396.81 607.273Z" fill="#FFC1CD"/>
<g opacity="0.05">
<path opacity="0.05" d="M322.042 570.686C322.544 566.202 322.27 560.86 319.622 556.209C319.622 556.209 319.03 543.515 306.609 533.706C294.188 523.897 280.584 496.201 280.584 496.201L273.486 510.626C273.486 510.626 262.816 542.298 251.749 556.359C249.535 559.149 248.028 562.408 247.349 565.874C246.615 569.687 244.084 574.494 236.223 575.827L235.815 575.896C230.311 576.794 224.658 576.141 219.521 574.014C214.384 571.887 209.976 568.375 206.814 563.889C201.579 556.536 195.665 546.362 194.223 536.415C193.893 538.598 193.875 540.816 194.168 543.004C195.524 553.057 201.521 563.377 206.814 570.813C209.976 575.298 214.384 578.811 219.521 580.938C224.658 583.065 230.311 583.718 235.815 582.82L236.223 582.751C244.084 581.418 246.615 576.611 247.349 572.798C248.028 569.332 249.535 566.072 251.749 563.283C262.816 549.222 273.486 517.55 273.486 517.55L280.584 503.125C280.584 503.125 294.188 530.821 306.609 540.63C319.03 550.439 319.622 563.133 319.622 563.133C320.921 565.475 321.743 568.04 322.042 570.686Z" fill="black"/>
</g>
<path opacity="0.05" d="M167.907 495.913C167.907 495.913 193.34 495.336 191.566 487.258L167.907 495.913Z" fill="black"/>
<path d="M585.03 524.737C585.03 524.737 624.521 498.199 663.133 507.616C701.746 517.032 672.786 549.563 672.786 549.563L585.03 524.737Z" fill="#EED1D7"/>
<path d="M569.234 507.616C569.234 507.616 607.847 491.35 634.174 508.472C660.501 525.593 713.154 534.154 713.154 534.154" fill="#CCB2BB"/>
</g>
<defs>
<linearGradient id="paint0_linear" x1="212.569" y1="307.949" x2="212.569" y2="306.775" gradientUnits="userSpaceOnUse">
<stop stop-color="#808080" stop-opacity="0.25"/>
<stop offset="0.53514" stop-color="#808080" stop-opacity="0.12"/>
<stop offset="1" stop-color="#808080" stop-opacity="0.1"/>
</linearGradient>
<linearGradient id="paint1_linear" x1="301.015" y1="751.829" x2="301.015" y2="750.221" gradientUnits="userSpaceOnUse">
<stop stop-color="#808080" stop-opacity="0.25"/>
<stop offset="0.53514" stop-color="#808080" stop-opacity="0.12"/>
<stop offset="1" stop-color="#808080" stop-opacity="0.1"/>
</linearGradient>
<linearGradient id="paint2_linear" x1="6411.26" y1="16933.7" x2="6411.26" y2="15938.9" gradientUnits="userSpaceOnUse">
<stop stop-color="#808080" stop-opacity="0.25"/>
<stop offset="0.53514" stop-color="#808080" stop-opacity="0.12"/>
<stop offset="1" stop-color="#808080" stop-opacity="0.1"/>
</linearGradient>
<clipPath id="clip0">
<rect width="946" height="735" fill="white"/>
</clipPath>
</defs>
</svg>
