<svg width="949" height="777" viewBox="0 0 949 777" fill="none" xmlns="http://www.w3.org/2000/svg">
<path d="M422.777 291.959C430.61 277.629 425.344 259.662 411.014 251.829C396.684 243.995 378.717 249.262 370.884 263.592C363.051 277.921 368.317 295.888 382.647 303.721C396.977 311.555 414.943 306.288 422.777 291.959Z" fill="#E9C4CB"/>
<path d="M559.726 689.805C678.317 689.805 774.453 685.328 774.453 679.805C774.453 674.282 678.317 669.805 559.726 669.805C441.136 669.805 345 674.282 345 679.805C345 685.328 441.136 689.805 559.726 689.805Z" fill="#E6E6E6"/>
<path d="M662.988 527.401C660.295 527.402 657.684 528.327 655.591 530.021C653.497 531.716 652.049 534.078 651.488 536.712H667.889V577.873H651.488C652.093 580.715 653.729 583.232 656.08 584.939C658.431 586.646 661.331 587.423 664.221 587.118C667.111 586.814 669.785 585.45 671.729 583.291C673.673 581.131 674.749 578.328 674.749 575.423V539.162C674.749 537.617 674.445 536.088 673.854 534.661C673.263 533.234 672.396 531.938 671.304 530.846C670.212 529.754 668.916 528.888 667.489 528.297C666.062 527.706 664.533 527.401 662.988 527.401V527.401Z" fill="#3F3D56"/>
<path d="M530.759 455.37C525.153 455.376 519.779 457.606 515.815 461.57C511.851 465.534 509.621 470.908 509.615 476.514V639.05C509.621 644.656 511.851 650.031 515.815 653.995C519.779 657.959 525.153 660.188 530.759 660.195H633.514C639.12 660.188 644.494 657.959 648.458 653.995C652.422 650.031 654.652 644.656 654.658 639.05V476.514C654.652 470.908 652.422 465.534 648.458 461.57C644.494 457.606 639.12 455.376 633.514 455.37H530.759Z" fill="#3F3D56"/>
<path d="M519.905 679.305C525.859 679.305 530.685 674.479 530.685 668.525C530.685 662.571 525.859 657.745 519.905 657.745C513.951 657.745 509.125 662.571 509.125 668.525C509.125 674.479 513.951 679.305 519.905 679.305Z" fill="#3F3D56"/>
<path d="M640.448 679.305C646.402 679.305 651.228 674.479 651.228 668.525C651.228 662.571 646.402 657.745 640.448 657.745C634.494 657.745 629.668 662.571 629.668 668.525C629.668 674.479 634.494 679.305 640.448 679.305Z" fill="#3F3D56"/>
<path d="M533.625 453.9H527.745V660.685H533.625V453.9Z" fill="#4D4D4D"/>
<path d="M550.286 453.9H544.406V660.685H550.286V453.9Z" fill="#4D4D4D"/>
<path d="M566.946 453.9H561.066V660.685H566.946V453.9Z" fill="#4D4D4D"/>
<path d="M583.606 453.9H577.726V660.685H583.606V453.9Z" fill="#4D4D4D"/>
<path d="M600.267 453.9H594.387V660.685H600.267V453.9Z" fill="#4D4D4D"/>
<path d="M616.927 453.9H611.047V660.685H616.927V453.9Z" fill="#4D4D4D"/>
<path d="M633.588 453.9H627.708V660.685H633.588V453.9Z" fill="#4D4D4D"/>
<path d="M632.008 438.219C635.85 431.684 637.876 424.24 637.875 416.659H533.748C533.747 424.24 535.773 431.684 539.615 438.219H518.435C518.435 449.586 528.033 458.8 539.873 458.8H566.109C570.517 460.104 575.09 460.764 579.686 460.76H591.937C596.533 460.764 601.107 460.104 605.514 458.8H631.75C643.59 458.8 653.188 449.586 653.188 438.219H632.008Z" fill="#2F2E41"/>
<path d="M555.092 586.693C555.285 588.782 554.841 590.881 553.817 592.713C552.794 594.545 551.239 596.024 549.358 596.954L549.306 596.983C539.504 602.574 531.484 606.962 521.966 606.154C521.007 606.069 520.08 605.764 519.258 605.262C518.436 604.76 517.741 604.075 517.228 603.261C516.714 602.447 516.395 601.525 516.296 600.567C516.197 599.609 516.32 598.642 516.656 597.739L530.195 571.993C538.06 562.83 543.602 562.821 553.226 570.523L555.092 586.693Z" fill="#2F2E41"/>
<path d="M611.141 586.693C610.948 588.782 611.392 590.881 612.416 592.713C613.439 594.545 614.994 596.024 616.875 596.954L616.927 596.983C626.729 602.574 634.749 606.962 644.267 606.154C645.226 606.069 646.153 605.764 646.975 605.262C647.797 604.76 648.492 604.075 649.005 603.261C649.519 602.447 649.838 601.525 649.937 600.567C650.036 599.609 649.913 598.642 649.577 597.739L636.038 571.993C628.173 562.83 622.631 562.821 613.007 570.523L611.141 586.693Z" fill="#2F2E41"/>
<path d="M571.793 283.375H534.12C532.413 283.378 530.751 282.831 529.38 281.815C528.008 280.799 527.001 279.368 526.506 277.735C525.346 273.869 523.849 270.117 523.825 266.715C523.733 253.511 524.389 245.106 530.195 239.764C549.541 225.095 563.559 227.793 576.746 243.195C581.376 251.799 580.187 264.64 577.683 278.44C577.435 279.822 576.71 281.074 575.633 281.976C574.557 282.878 573.198 283.373 571.793 283.375Z" fill="#563C4C"/>
<path d="M552.246 300.036C566.318 300.036 577.726 288.628 577.726 274.555C577.726 260.483 566.318 249.075 552.246 249.075C538.173 249.075 526.765 260.483 526.765 274.555C526.765 288.628 538.173 300.036 552.246 300.036Z" fill="#DAB2BA"/>
<path d="M571.846 325.517L536.565 326.497L533.625 288.276L567.926 287.296L571.846 325.517Z" fill="#DAB2BA"/>
<path d="M631.628 416.659L607.283 427.927C603.204 437.604 597.58 437.325 590.467 427.439C583.677 439.33 569.053 432.204 561.908 427.011C557.302 424.663 552.208 423.434 547.039 423.424C541.87 423.413 536.771 424.621 532.155 426.949L506.185 311.796C514.19 304.914 524.857 300.591 535.095 297.586L555.186 322.576L568.906 298.076C578.442 290.409 591.837 290.395 606.147 292.196L614.502 336.865C608.992 372.102 617.278 389.775 631.628 416.659Z" fill="#6C63FF"/>
<path d="M551.266 568.562L530.685 570.522L500.197 435.775C499.504 432.655 499.52 429.419 500.245 426.305C500.969 423.192 502.384 420.281 504.384 417.788C506.384 415.294 508.919 413.282 511.801 411.899C514.683 410.516 517.838 409.799 521.035 409.799V409.799C524.074 409.799 527.078 410.448 529.847 411.702C532.615 412.957 535.083 414.788 537.087 417.074C539.09 419.359 540.582 422.046 541.464 424.955C542.345 427.863 542.595 430.927 542.197 433.94L538.525 461.74L551.266 568.562Z" fill="#2F2E41"/>
<path d="M613.007 570.522L633.588 569.542L664.076 435.775C664.769 432.655 664.753 429.419 664.029 426.305C663.304 423.192 661.889 420.281 659.889 417.788C657.889 415.294 655.354 413.282 652.472 411.899C649.59 410.516 646.435 409.799 643.238 409.799V409.799C640.199 409.799 637.195 410.448 634.426 411.702C631.658 412.957 629.19 414.788 627.186 417.074C625.183 419.359 623.691 422.046 622.809 424.955C621.928 427.863 621.678 430.927 622.076 433.94L625.748 461.74L613.007 570.522Z" fill="#2F2E41"/>
<path d="M679.901 377.144L662.499 422.049C652.984 414.774 645.312 413.781 634.758 417.639C631.84 417.234 629.668 410.819 629.668 407.872C629.668 406.353 630.253 404.893 631.303 403.794C632.352 402.696 633.785 402.045 635.303 401.976L651.228 401.252C654.142 393.622 655.913 385.605 656.483 377.458C664.125 375.29 672.204 375.181 679.901 377.144V377.144Z" fill="#DAB2BA"/>
<path d="M681.609 378.438L685.851 362.607C687.704 356.817 687.522 350.568 685.336 344.896C683.149 339.224 679.089 334.469 673.83 331.421L606.147 292.196L605.167 335.317L655.148 356.877C656.529 364.214 656.977 371.695 656.483 379.144C664.28 376.827 673.793 376.335 681.609 378.438Z" fill="#6C63FF"/>
<path d="M577.236 260.345L550.776 265.245C548.33 265.245 545.909 264.763 543.65 263.828C541.391 262.892 539.338 261.52 537.609 259.791C535.88 258.062 534.508 256.009 533.573 253.75C532.637 251.491 532.155 249.07 532.155 246.625H578.216L577.236 260.345Z" fill="#563C4C"/>
<path d="M528.725 270.145C530.078 270.145 531.175 267.951 531.175 265.245C531.175 262.539 530.078 260.345 528.725 260.345C527.372 260.345 526.275 262.539 526.275 265.245C526.275 267.951 527.372 270.145 528.725 270.145Z" fill="#DAB2BA"/>
<path d="M609.577 343.237H609.292V335.441C609.292 334.848 609.176 334.261 608.949 333.714C608.722 333.166 608.39 332.669 607.971 332.25C607.552 331.831 607.054 331.499 606.507 331.272C605.959 331.045 605.373 330.928 604.78 330.928H588.262C587.669 330.928 587.083 331.045 586.535 331.272C585.988 331.499 585.49 331.831 585.071 332.25C584.652 332.669 584.32 333.166 584.093 333.714C583.866 334.261 583.75 334.848 583.75 335.441V378.213C583.75 378.806 583.866 379.392 584.093 379.94C584.32 380.487 584.652 380.985 585.071 381.404C585.49 381.823 585.988 382.155 586.535 382.382C587.083 382.609 587.669 382.725 588.262 382.725H604.78C605.373 382.725 605.959 382.609 606.507 382.382C607.054 382.155 607.552 381.823 607.971 381.404C608.39 380.985 608.722 380.487 608.949 379.94C609.176 379.392 609.292 378.806 609.292 378.213V348.787H609.577V343.237Z" fill="#E6E6E6"/>
<path d="M595.857 347.567C598.022 347.567 599.777 345.812 599.777 343.647C599.777 341.482 598.022 339.727 595.857 339.727C593.692 339.727 591.937 341.482 591.937 343.647C591.937 345.812 593.692 347.567 595.857 347.567Z" fill="#6C63FF"/>
<path d="M592.427 379.418C572.268 395.243 552.056 408.415 537.055 410.289L534.605 383.338C549.012 381.261 568.275 371.77 588.507 360.797L598.402 355.652C599.998 354.822 601.774 354.401 603.572 354.426C605.371 354.451 607.135 354.921 608.707 355.795C610.279 356.668 611.61 357.918 612.581 359.432C613.552 360.946 614.132 362.677 614.27 364.471V364.471C614.465 367.014 613.761 369.545 612.28 371.622C610.8 373.699 608.636 375.189 606.168 375.833L592.427 379.418Z" fill="#DAB2BA"/>
<path d="M554.206 410.779L514.025 411.759C500.505 385.235 495.598 356.931 498.344 327.047C498.344 323.853 499.119 320.707 500.601 317.878C502.083 315.05 504.229 312.622 506.854 310.805L511.085 307.876C529.172 334.727 540.391 359.661 536.565 380.398L548.326 379.418C540.71 389.697 544.235 400.179 554.206 410.779Z" fill="#6C63FF"/>
<path d="M379.848 677.816C379.794 677.349 374.771 630.822 395.11 606.2C402.617 597.112 412.675 592.023 425.005 591.074L425.141 592.828C413.306 593.739 403.659 598.613 396.469 607.316C376.606 631.359 381.543 677.157 381.595 677.617L379.848 677.816Z" fill="#E6E6E6"/>
<path d="M425.073 606.391C433.048 606.391 439.513 599.926 439.513 591.951C439.513 583.976 433.048 577.511 425.073 577.511C417.098 577.511 410.633 583.976 410.633 591.951C410.633 599.926 417.098 606.391 425.073 606.391Z" fill="#E6E6E6"/>
<path d="M388.817 225.561C381.196 227.949 375.505 234.189 370.202 240.172C368.139 242.287 366.389 244.688 365.006 247.301C363.659 250.631 362.947 254.186 362.908 257.78C362.554 263.35 362.441 268.928 362.569 274.515C362.692 279.866 363.018 285.352 361.377 290.447C359.79 295.371 356.487 299.535 354.218 304.184C350.598 311.6 349.763 320.599 353.104 328.146C354.943 332.299 357.92 335.835 360.144 339.795C364.076 346.848 365.532 355.019 364.28 363L374.74 349.42C381.439 340.722 388.35 331.557 390.235 320.732C392.969 305.032 384.612 289.654 382.963 273.802C382.503 269.381 382.658 264.608 385.154 260.935C388.839 255.513 396.853 253.597 399.069 247.424C399.39 250.01 414.84 258.242 416.701 256.641C417.845 259.736 418.178 263.074 417.667 266.334C417.156 269.595 415.818 272.67 413.782 275.264C412.286 277.125 410.448 278.691 408.989 280.581C405.212 285.477 404.352 292.077 404.886 298.243C405.419 304.409 407.19 310.397 408.126 316.514C408.918 322.605 409.296 328.742 409.257 334.884C409.327 339.136 409.21 343.881 406.235 346.912C411.114 345.198 415.572 342.46 419.31 338.881C421.339 336.668 423.517 334.598 425.831 332.686C430.51 329.303 436.849 328.3 440.666 323.964C444.074 320.092 444.617 314.413 443.817 309.313C443.016 304.213 441.065 299.36 440.082 294.292C438.841 287.846 439.188 281.193 441.093 274.912C442.483 270.35 444.7 265.952 444.971 261.19C445.524 251.476 438.052 243.352 430.867 236.809C420.104 227.008 403.435 220.98 388.817 225.561Z" fill="#B88698"/>
<path opacity="0.1" d="M820.053 443.99C785.651 499.923 791.11 575.568 805.252 635.087C809.987 655.015 815.464 676.047 810.964 698.46C805.461 725.867 786.295 747.557 767.007 760.046C731.845 782.813 691.995 782.639 663.257 759.591C638.421 739.674 622.322 704.64 596.947 685.811C554.481 654.3 495.544 674.363 444.179 704.846C407.839 726.412 367.811 753.671 334.643 738.879C311.304 728.471 297.02 698.509 290.567 665.803C287.452 650.012 285.662 632.748 278.237 620.771C273.822 613.651 267.691 608.923 261.33 605.067C203.243 569.851 123.759 600.751 67.808 560.769C30.0209 533.767 9.00618 477.359 2.58627 416.854C-3.83363 356.349 2.75541 291.455 10.8218 227.545C16.5542 182.127 24.173 133.475 48.0116 96.3077C73.2294 56.9898 112.481 39.1171 146.383 42.377C180.285 45.637 209.5 67.2311 234.598 93.6794C265.965 126.734 294.105 169.084 335.075 179.396C362.975 186.419 393.643 177.577 423.424 172.428C473.212 163.821 522.18 165.575 570.798 168.039C617.342 170.399 664.165 173.475 707.373 189.67C737.95 201.13 761.236 225.442 789.716 241.097C808.28 251.301 829.34 252.384 846.589 266.077C867.838 282.946 886.026 314.33 876.981 354.356C868.381 392.411 838.312 414.303 820.053 443.99Z" fill="#6C63FF"/>
<path d="M222.404 638.017C209.734 634.517 204.327 653.758 216.965 657.37C229.635 660.87 235.042 641.629 222.404 638.017Z" fill="#3F3D56"/>
<path d="M292.656 662.782C279.985 659.282 274.578 678.522 287.217 682.134C299.887 685.634 305.294 666.393 292.656 662.782Z" fill="#3F3D56"/>
<path d="M321.087 459.851L320.891 459.796L288.255 548.4L283.953 547.191L316.823 457.951C316.894 456.576 317.433 455.266 318.351 454.24C319.27 453.213 320.511 452.531 321.87 452.308C338.191 449.727 344.807 464.215 344.807 464.215L344.742 464.312L311.375 554.899L307.073 553.689L339.457 465.768C329.598 456.016 321.087 459.851 321.087 459.851Z" fill="#3F3D56"/>
<path d="M283.364 667.764C264.127 667.47 240.338 657.075 224.118 649.282C219.821 647.223 216.39 643.712 214.43 639.369C212.469 635.027 212.105 630.131 213.403 625.546L234.424 550.758C235.362 547.444 236.964 544.355 239.133 541.679C241.302 539.003 243.993 536.796 247.041 535.193C249.999 533.62 253.25 532.675 256.59 532.417C259.93 532.159 263.288 532.593 266.452 533.694C267.202 534.031 287.624 539.747 301.138 543.528C309.088 545.753 314.832 547.361 315.216 547.49C315.535 547.596 329.821 552.504 327.286 569.765C325.339 583.021 310.642 631.87 304.413 652.257C303.06 656.713 300.319 660.62 296.591 663.41C292.862 666.199 288.34 667.725 283.683 667.766C283.577 667.766 283.47 667.765 283.364 667.764Z" fill="#B66CFF"/>
<path d="M223.651 636.946L250.904 544.702L314.991 562.813L315.374 561.459L249.948 542.969L249.751 543.636L222.301 636.547L223.651 636.946Z" fill="#3F3D56"/>
<path d="M337.074 467.338C337.663 466.139 337.981 464.826 338.008 463.49C338.034 462.154 337.767 460.829 337.225 459.608C336.684 458.387 335.881 457.299 334.874 456.421C333.867 455.544 332.68 454.898 331.396 454.529L329.639 422.104L316.075 432.142L319.823 461.395C319.346 463.592 319.692 465.889 320.795 467.849C321.898 469.809 323.682 471.296 325.808 472.029C327.935 472.762 330.256 472.689 332.332 471.824C334.409 470.96 336.096 469.364 337.074 467.338V467.338Z" fill="#E9C4CB"/>
<path d="M442.155 473.372C441.388 472.278 440.871 471.029 440.639 469.714C440.407 468.398 440.467 467.048 440.813 465.757C441.16 464.467 441.785 463.269 442.645 462.246C443.505 461.224 444.578 460.403 445.79 459.84L442.527 427.532L457.476 435.359L458.283 464.84C459.093 466.938 459.106 469.26 458.318 471.367C457.53 473.473 455.997 475.218 454.009 476.27C452.021 477.321 449.716 477.607 447.531 477.073C445.346 476.539 443.433 475.222 442.155 473.372H442.155Z" fill="#E9C4CB"/>
<path d="M362.375 671.997L373.055 671.996L378.137 630.799H362.373L362.375 671.997Z" fill="#E9C4CB"/>
<path d="M359.65 668.509L380.685 668.509H380.685C384.24 668.509 387.65 669.921 390.164 672.435C392.678 674.949 394.09 678.358 394.09 681.913V682.349L359.651 682.35L359.65 668.509Z" fill="#2F2E41"/>
<path d="M416.319 665.582L426.763 667.82L440.364 628.601L424.95 625.299L416.319 665.582Z" fill="#E9C4CB"/>
<path d="M414.386 661.601L434.953 666.008L434.954 666.008C438.43 666.753 441.468 668.849 443.399 671.833C445.33 674.818 445.997 678.448 445.252 681.924L445.161 682.35L411.486 675.135L414.386 661.601Z" fill="#2F2E41"/>
<path d="M343.117 436.235C343.117 436.235 331.754 471.354 342.882 511.068L354.209 558.64L357.02 663.903L379.957 656.541L389.302 495.984L432.343 569.042L409.69 656.541L435.741 657.39L463.873 562.764L439.139 474.463L434.609 452.942L343.117 436.235Z" fill="#2F2E41"/>
<path d="M435.981 319.604L413.167 306.6L373.699 304.318L346.322 318.691L357.448 395.021C357.448 395.021 336.228 425.475 343.964 445.766C353.513 470.81 437.01 483.875 435.377 459.434C432.8 420.864 428.82 423.524 425.901 404.61C422.699 383.857 445.107 357.247 445.107 357.247L435.981 319.604Z" fill="#E8B0F7"/>
<path d="M354.763 326.22L352.22 315.198C352.22 315.198 341.37 316.603 333.852 337.604C326.333 358.605 312.967 402.875 312.967 402.875L313.665 418.959C313.665 418.959 308.515 424.91 312.068 427.628C315.622 430.346 305.649 434.032 310.7 437.894C312.917 439.593 314.596 441.897 315.535 444.528C316.474 447.158 316.633 450.005 315.992 452.724L331.506 447.933L330.365 422.609L336.512 402.647L352.938 352.684L354.763 326.22Z" fill="#E8B0F7"/>
<path d="M427.628 328.099L431.083 317.41C431.083 317.41 437.448 314.806 442.145 329.482C446.843 344.158 449.073 381.297 449.073 381.297L458.199 425.567C458.199 425.567 461.609 431.205 459.796 432.821C457.983 434.437 467.759 436.709 462.077 439.703C456.395 442.697 462.567 439.058 460.444 445.884C459.05 450.368 460.48 452.724 460.48 452.724L442.913 449.189L438.122 426.497L427.255 384.305L427.628 328.099Z" fill="#E8B0F7"/>
<path d="M793.324 684H154.676C154.232 684 153.805 683.895 153.491 683.707C153.177 683.52 153 683.265 153 683C153 682.735 153.177 682.48 153.491 682.293C153.805 682.105 154.232 682 154.676 682H793.324C793.768 682 794.195 682.105 794.509 682.293C794.823 682.48 795 682.735 795 683C795 683.265 794.823 683.52 794.509 683.707C794.195 683.895 793.768 684 793.324 684Z" fill="#CBCBCB"/>
<path d="M521.61 44.6431C518.297 44.7011 510.714 39.1474 506 35.4138C508.175 33.4029 510.525 31.591 513.023 30C516.823 32.9168 523.588 37.6395 527.349 37.4714C532.776 37.2283 526.592 44.5569 521.61 44.6431Z" fill="#6C63FF"/>
<path d="M910.189 104.366C905.332 106.16 896.806 107.627 886.935 108.811C860.096 112.031 823.315 113.175 823.315 113.175C823.315 113.175 634.29 128.854 492.609 70.544C492.609 70.544 472.001 59.7376 491.144 45.2004C494.085 43.0248 497.213 41.1148 500.492 39.4927C500.492 39.4927 500.571 39.4121 500.728 39.2623C502.902 37.2514 505.253 35.4395 507.751 33.8485C515.09 29.1045 527.485 23.476 542.567 26.0253L914.658 86.2117C914.658 86.2117 928.25 97.695 910.189 104.366Z" fill="#F2F2F2"/>
<path d="M836.044 77.0922L913.944 21.8212L948.278 27.7589L914.658 86.211C914.658 86.211 836.939 86.8294 836.044 77.0922Z" fill="#F2F2F2"/>
<path d="M639.923 43.517L795.088 0L820.101 5.226L750.01 36.756L728.1 61.264L639.923 43.517Z" fill="#F2F2F2"/>
<path d="M886.935 108.811C860.096 112.031 823.315 113.175 823.315 113.175C823.315 113.175 634.29 128.854 492.609 70.544C492.609 70.544 472.001 59.7376 491.144 45.2004L491.209 45.4661C491.209 45.4661 521.778 66.1279 667.845 83.3797L886.935 108.811Z" fill="#F2F2F2"/>
<path d="M861.992 107.616L931.368 135.94L948.794 134.005L907.298 102.821C907.298 102.821 857.109 92.1167 861.992 107.616Z" fill="#F2F2F2"/>
<path d="M831.496 205.532L786.957 207.86L661.737 123.42L638.491 107.744L627.192 100.125C648.379 82.2185 734.808 106.908 734.808 106.908C736.464 108.305 736.989 110.625 736.913 113.188C736.771 117.99 734.516 123.642 733.646 125.653C733.437 126.138 733.309 126.41 733.309 126.41L831.496 205.532Z" fill="#F2F2F2"/>
<path d="M910.189 104.366C905.332 106.16 896.806 107.627 886.935 108.811C860.096 112.031 823.315 113.175 823.315 113.175C823.315 113.175 634.29 128.854 492.609 70.544C492.609 70.544 472.001 59.7376 491.144 45.2004C494.085 43.0248 497.213 41.1148 500.492 39.4927C500.492 39.4927 500.571 39.4121 500.728 39.2623C502.902 37.2514 505.253 35.4395 507.751 33.8485C515.09 29.1045 527.485 23.476 542.567 26.0253L914.658 86.2117C914.658 86.2117 928.25 97.695 910.189 104.366Z" fill="#3F3D56"/>
<path d="M836.044 77.0922L913.944 21.8212L948.278 27.7589L914.658 86.211C914.658 86.211 836.939 86.8294 836.044 77.0922Z" fill="#3F3D56"/>
<path d="M639.923 43.517L795.088 0L820.101 5.226L750.01 36.756L728.1 61.264L639.923 43.517Z" fill="#3F3D56"/>
<path d="M886.935 108.811C860.096 112.031 823.315 113.175 823.315 113.175C823.315 113.175 634.29 128.854 492.609 70.544C492.609 70.544 472.001 59.7376 491.144 45.2004L491.209 45.4661C491.209 45.4661 521.778 66.1279 667.845 83.3797L886.935 108.811Z" fill="#6C63FF"/>
<path d="M861.992 107.616L931.368 135.94L948.794 134.005L907.298 102.821C907.298 102.821 857.109 92.1167 861.992 107.616Z" fill="#3F3D56"/>
<path d="M831.496 205.532L786.957 207.86L661.737 123.42L638.491 107.744L627.192 100.125C648.379 82.2185 734.808 106.908 734.808 106.908C736.464 108.305 736.989 110.625 736.913 113.188C736.771 117.99 734.516 123.642 733.646 125.653C733.437 126.138 733.309 126.41 733.309 126.41L831.496 205.532Z" fill="#3F3D56"/>
<path d="M529.61 44.6431C526.297 44.7011 518.714 39.1474 514 35.4138C516.175 33.4029 518.525 31.591 521.023 30C524.823 32.9168 531.588 37.6395 535.349 37.4714C540.776 37.2283 534.592 44.5569 529.61 44.6431Z" fill="#6C63FF"/>
</svg>
